<svg width="193" height="30" viewBox="0 0 193 30" fill="none" xmlns="http://www.w3.org/2000/svg">
<path d="M75.6519 10.9733H78.4525L76.9294 18.2124H74.1287L74.7347 15.3135H66.9716L66.3656 18.2124H63.5649L65.0881 10.9733H67.8887L67.3646 13.4628H75.1278L75.6519 10.9733Z" fill="white"/>
<path d="M88.9672 18.2288L88.4267 16.7711H83.5133L82.3505 18.2288H78.6163L85.4787 10.9733H88.9017L92.7014 18.2124H88.9672V18.2288ZM85.0037 14.904H87.7061L86.92 12.824H86.6415L85.0037 14.904Z" fill="white"/>
<path d="M97.582 16.3617H105.394L105.001 18.2287H94.4047L95.9278 10.9897H98.7284L97.582 16.3617Z" fill="white"/>
<path d="M109.882 16.3617H117.694L117.301 18.2287H106.704L108.228 10.9897H111.028L109.882 16.3617Z" fill="white"/>
<path d="M119.004 18.2288L120.544 10.9733H131.353L130.96 12.8404H122.951L122.755 13.774H129.323L128.979 15.4281H122.411L122.214 16.3617H130.207L129.814 18.2288H119.004Z" fill="white"/>
<path d="M135.333 16.3617H143.145L142.752 18.2287H132.156L133.679 10.9897H136.48L135.333 16.3617Z" fill="white"/>
<path d="M149.451 18.5071C147.535 18.5071 146.192 18.2287 145.422 17.6555C144.652 17.0823 144.423 16.0996 144.718 14.7075L145.504 10.9733H148.305L147.502 14.7075C147.355 15.4117 147.486 15.9031 147.928 16.1979C148.354 16.4927 149.009 16.6401 149.86 16.6401C151.695 16.6401 152.759 15.9849 153.038 14.6911L153.824 10.9569H156.625L155.838 14.6911C155.56 16.0341 154.888 17.0004 153.857 17.59C152.792 18.2123 151.334 18.5071 149.451 18.5071Z" fill="white"/>
<path d="M157.836 18.2288L159.36 10.9733H162.16L160.637 18.2124H157.836V18.2288Z" fill="white"/>
<path d="M172.675 18.2288L172.134 16.7711H167.221L166.058 18.2288H162.34L169.186 10.9733H172.609L176.409 18.2124H172.675V18.2288ZM168.711 14.904H171.414L170.628 12.824H170.349L168.711 14.904Z" fill="white"/>
<path d="M190.199 10.9733H193L191.477 18.2124H188.676L189.282 15.3135H181.519L180.913 18.2124H178.112L179.635 10.9733H182.436L181.912 13.4628H189.675L190.199 10.9733Z" fill="white"/>
<path d="M52.0514 0.000244141C52.0514 0.000244141 50.0042 3.60339 40.1774 8.56592C33.9047 11.7432 33.659 17.4919 34.2977 21.2261C34.8054 24.1905 36.5415 26.8437 39.162 28.3505C41.9298 29.9555 45.9752 30.5124 50.4464 25.4516C50.9541 24.8784 51.3799 24.2232 51.6747 23.519C51.8876 23.0277 52.0514 22.4544 52.0514 21.8976C52.0514 21.8976 48.1043 28.285 43.1582 26.3196C41.1273 25.5171 39.7024 23.6173 39.6533 21.439C39.6042 19.3426 40.7834 16.6402 46.1062 14.7404C56.0313 11.1864 52.0514 0.000244141 52.0514 0.000244141Z" fill="white"/>
<path d="M30.7764 15.7721C32.7935 15.7721 34.4287 14.1369 34.4287 12.1198C34.4287 10.1027 32.7935 8.46753 30.7764 8.46753C28.7593 8.46753 27.1241 10.1027 27.1241 12.1198C27.1241 14.1369 28.7593 15.7721 30.7764 15.7721Z" fill="white"/>
<path d="M0.788303 0C0.788303 0 2.83555 3.60315 12.6623 8.56567C18.9351 11.743 19.1807 17.4917 18.542 21.2258C18.0343 24.1902 16.2982 26.8435 13.6778 28.3502C10.9099 29.9553 6.86453 30.5121 2.39334 25.4513C1.88563 24.8781 1.4598 24.223 1.165 23.5187C0.952083 23.0274 0.788303 22.4542 0.788303 21.8973C0.788303 21.8973 4.73539 28.2847 9.68153 26.3194C11.7124 25.5169 13.1373 23.617 13.1864 21.4387C13.2356 19.3424 12.0563 16.64 6.7335 14.7402C-3.19154 11.1861 0.788303 0 0.788303 0Z" fill="white"/>
<path d="M22.0632 15.772C24.0803 15.772 25.7155 14.1368 25.7155 12.1197C25.7155 10.1026 24.0803 8.46741 22.0632 8.46741C20.0461 8.46741 18.4109 10.1026 18.4109 12.1197C18.4109 14.1368 20.0461 15.772 22.0632 15.772Z" fill="white"/>
</svg>
