<svg width="194" height="12" viewBox="0 0 194 12" fill="none" xmlns="http://www.w3.org/2000/svg">
<path d="M18.367 0.245605H22.5562L20.2779 11.0737H16.0887L16.9951 6.73758H5.38306L4.47664 11.0737H0.287476L2.56579 0.245605H6.75495L5.97102 3.9693H17.5831L18.367 0.245605Z" fill="white"/>
<path d="M38.2846 11.0737L37.4762 8.89341H30.1268L28.3874 11.0737H22.8019L33.0665 0.245605H38.1866L43.8702 11.0737H38.2846ZM32.3561 6.12513H36.3983L35.2224 3.01388H34.8304L32.3561 6.12513Z" fill="white"/>
<path d="M51.1705 8.30545H62.856L62.2681 11.0737H46.4178L48.6962 0.245605H52.8853L51.1705 8.30545Z" fill="white"/>
<path d="M69.5928 8.30545H81.2784L80.6904 11.0982H64.8402L67.1185 0.245605H71.3077L69.5928 8.30545Z" fill="white"/>
<path d="M83.2375 11.0737L85.5159 0.245605H101.685L101.097 3.03838H89.1171L88.8231 4.43477H98.6468L98.1323 6.90907H88.3086L88.0147 8.30545H99.9942L99.4062 11.0982H83.2375V11.0737Z" fill="white"/>
<path d="M107.638 8.30545H119.324L118.736 11.0982H102.886L105.164 0.245605H109.353L107.638 8.30545Z" fill="white"/>
<path d="M128.756 11.5147C125.889 11.5147 123.881 11.0982 122.729 10.2408C121.578 9.38337 121.235 7.91349 121.676 5.83115L122.852 0.245605H127.041L125.84 5.83115C125.62 6.88457 125.816 7.61951 126.477 8.06047C127.114 8.50144 128.094 8.72192 129.368 8.72192C132.112 8.72192 133.704 7.742 134.121 5.80666L135.272 0.245605H139.461L138.285 5.83115C137.869 7.83999 136.865 9.28537 135.321 10.1673C133.753 11.0737 131.573 11.5147 128.756 11.5147Z" fill="white"/>
<path d="M141.299 11.0737L143.577 0.245605H147.766L145.488 11.0737H141.299Z" fill="white"/>
<path d="M163.494 11.0737L162.685 8.89341H155.336L153.597 11.0737H148.011L158.3 0.245605H163.42L169.079 11.0737H163.494ZM157.565 6.12513H161.607L160.431 3.01388H160.015L157.565 6.12513Z" fill="white"/>
<path d="M189.706 0.245605H193.895L191.617 11.0737H187.428L188.334 6.73758H176.722L175.815 11.0737H171.626L173.929 0.245605H178.118L177.334 3.9693H188.922L189.706 0.245605Z" fill="white"/>
</svg>
